# Blender 4.2.3 LTS
# www.blender.org
mtllib lleg.mtl
o lleg02.059
v -0.017174 0.018232 -0.320366
v 0.021490 0.018232 -0.340042
v -0.019404 0.018256 -0.348830
v -0.006477 0.018211 -0.357425
v 0.012136 0.018260 -0.354736
v -0.017413 -0.018220 -0.320399
v 0.021382 -0.018260 -0.344425
v -0.002531 -0.018231 -0.357831
v -0.021885 -0.018175 -0.343053
v -0.022542 -0.015739 -0.025201
v -0.016728 -0.010156 0.050647
v 0.015190 0.009325 -0.031416
v -0.021234 0.016063 -0.029373
v -0.022197 0.011818 0.044058
v 0.006952 -0.022512 -0.103936
v 0.014959 -0.011603 -0.264772
v 0.011041 0.020789 -0.128082
v 0.012079 0.001770 0.050325
v -0.022688 -0.019072 -0.324755
v -0.032680 -0.004655 -0.329434
v 0.030223 -0.017284 -0.349946
v -0.003586 -0.018279 -0.327809
v 0.034813 -0.010563 -0.264995
v 0.034357 -0.021383 -0.117231
v -0.024828 0.018563 -0.314651
v -0.001099 0.018336 -0.329600
v 0.013183 0.011839 -0.269601
v 0.013967 -0.011039 -0.038185
v -0.029615 0.014032 -0.328204
v 0.027230 0.018745 -0.347281
v -0.020000 0.018100 -0.324900
v 0.038345 0.020034 -0.134028
v 0.034864 0.010586 -0.262143
v -0.025741 0.019892 -0.326865
v -0.031676 -0.019632 -0.331538
v 0.027588 0.017974 -0.348737
v 0.021055 -0.007534 -0.364253
v 0.028177 -0.017242 -0.348199
v -0.011894 0.018438 -0.365860
v -0.029045 -0.002512 -0.358130
v -0.000011 -0.016264 -0.367359
vn -0.0015 1.0000 -0.0075
vn 0.0003 1.0000 0.0010
vn 0.0007 1.0000 0.0014
vn 0.0005 1.0000 0.0012
vn -0.0000 1.0000 0.0008
vn -0.0039 -1.0000 -0.0012
vn -0.0019 -1.0000 -0.0004
vn -0.0024 -1.0000 -0.0007
vn -0.0011 -1.0000 -0.0001
vn -0.9992 0.0397 -0.0108
vn -0.9475 0.1364 0.2891
vn -0.3247 0.9256 -0.1948
vn -0.0268 0.9980 -0.0577
vn -0.9966 0.0691 -0.0449
vn -0.9973 0.0575 -0.0455
vn -0.9716 -0.0112 0.2363
vn -0.9653 -0.0194 0.2606
vn -0.9505 -0.0017 -0.3109
vn -0.7517 0.6225 -0.2179
vn -0.0327 0.9992 0.0221
vn 0.9965 -0.0794 -0.0262
vn 0.9943 -0.1048 -0.0193
vn 0.9947 0.0694 -0.0763
vn 0.9928 0.0884 -0.0806
vn 0.9704 -0.1267 0.2057
vn 0.5955 -0.7779 0.2008
vn 0.9935 -0.0673 0.0922
vn 0.7065 -0.7002 0.1029
vn 0.9970 -0.0703 0.0315
vn -0.7204 -0.2206 0.6576
vn -0.7438 -0.2147 0.6330
vn -0.6637 -0.2289 0.7121
vn 0.1848 0.9810 0.0591
vn -0.7627 -0.2078 0.6125
vn -0.8486 0.0443 0.5271
vn -0.6957 0.0419 0.7171
vn 0.1714 0.8714 0.4596
vn -0.5743 0.5673 0.5902
vn -0.9724 -0.2150 0.0904
vn -0.9344 -0.1021 -0.3413
vn 0.9952 -0.0975 -0.0041
vn 0.9828 0.1722 -0.0667
vn 0.7902 -0.6114 -0.0426
vn 0.4386 -0.8973 0.0493
vn 0.1699 0.9800 0.1039
vn 0.0278 0.9996 0.0006
vn 0.2633 0.9597 0.0987
vn 0.0460 0.9942 0.0967
vn 0.0787 0.9950 -0.0617
vn 0.0115 0.9972 -0.0739
vn 0.0672 0.9935 0.0916
vn 0.0255 0.9953 0.0931
vn 0.3801 -0.9142 0.1404
vn 0.0936 -0.9916 0.0891
vn 0.1488 -0.9870 0.0612
vn 0.1596 -0.9831 0.0894
vn 0.0555 -0.9945 0.0890
vn 0.0823 -0.9933 0.0810
vn 0.0057 -0.9973 -0.0730
vn 0.0515 -0.9966 -0.0650
vn 0.0521 -0.9986 -0.0009
vn 0.6821 0.0225 0.7309
vn 0.8107 -0.0394 0.5842
vn 0.9161 0.0092 -0.4008
vn -0.7894 0.5355 -0.3003
vn -0.4009 0.8995 -0.1735
vn -0.3713 0.9138 -0.1647
vn 0.3664 0.4133 -0.8336
vn -0.4669 -0.0344 0.8837
vn -0.2016 -0.0176 0.9793
vn -0.9889 0.1487 -0.0021
vn 0.1123 0.0813 -0.9903
vn -0.2981 -0.8907 -0.3432
vn -0.4953 -0.7073 -0.5044
vn -0.1423 -0.9649 -0.2207
vn 0.3808 -0.7067 -0.5963
vn 0.0182 -0.9968 -0.0777
vn 0.0242 0.9993 -0.0287
vn -0.3336 -0.0736 -0.9398
s 1
f 4//1 3//1 5//1
f 1//2 2//3 5//4
f 5//4 3//5 1//2
f 9//6 8//7 6//8
f 6//8 8//7 7//9
f 10//10 14//10 13//10
f 25//11 29//11 20//11
f 29//12 25//12 31//12
f 31//13 25//13 26//13
f 15//14 17//15 16//16
f 16//16 17//15 27//17
f 10//18 13//19 17//20
f 33//21 32//22 21//23
f 33//21 21//23 30//24
f 12//25 28//26 32//27
f 32//27 28//26 24//28
f 12//29 18//29 28//29
f 19//30 25//31 20//32
f 13//33 14//33 12//33
f 25//31 19//30 27//34
f 27//17 19//35 16//16
f 11//36 18//37 14//38
f 11//36 14//38 10//39
f 15//40 10//40 17//40
f 24//28 23//41 32//27
f 32//42 23//43 21//44
f 17//20 12//45 32//46
f 18//37 12//47 14//38
f 13//19 12//45 17//20
f 30//48 26//48 27//48
f 17//49 33//49 27//49
f 32//46 33//50 17//20
f 27//51 26//51 25//51
f 33//52 30//52 27//52
f 28//53 18//53 11//53
f 24//28 28//26 15//54
f 11//55 10//56 28//26
f 10//56 15//54 28//26
f 16//57 19//57 22//57
f 16//58 22//58 21//58
f 24//28 15//54 23//59
f 15//60 16//61 23//43
f 21//44 23//43 16//61
f 36//62 38//63 37//64
f 40//65 34//66 39//67
f 37//68 39//68 36//68
f 35//69 34//70 40//71
f 41//72 39//72 37//72
f 35//73 40//74 41//75
f 41//76 37//76 38//76
f 36//62 34//70 38//63
f 38//63 34//70 35//69
f 38//77 35//73 41//75
f 34//66 36//78 39//67
f 39//79 41//79 40//79
